<?xml version="1.0" encoding="UTF-8" standalone="no"?><!DOCTYPE svg PUBLIC "-//W3C//DTD SVG 1.1//EN" "http://www.w3.org/Graphics/SVG/1.1/DTD/svg11.dtd"><svg width="100%" height="100%" viewBox="0 0 672 177" version="1.1" xmlns="http://www.w3.org/2000/svg" xmlns:xlink="http://www.w3.org/1999/xlink" xml:space="preserve" xmlns:serif="http://www.serif.com/" style="fill-rule:evenodd;clip-rule:evenodd;stroke-linejoin:round;stroke-miterlimit:2;"><ellipse cx="136.862" cy="20.486" rx="20.185" ry="20.486" style="fill:#27a683;"/><ellipse cx="454.302" cy="121.24" rx="17.732" ry="17.996" style="fill:#27a683;"/><path d="M136.862,43.599l-63.495,110.285l-12.912,-0.211l-36.008,-56.977l0,80.015l-24.446,0l0,-129.28l23.112,0.071l40.432,69.458l4.278,0.048l47.648,-85.194c3.179,7.083 10.217,12.011 18.38,12.011c1.023,0 2.029,-0.077 3.011,-0.227Z" style="fill:#27a683;"/><path d="M189.517,69.772c29.078,0 52.685,23.959 52.685,53.47c0,29.511 -23.607,53.47 -52.685,53.47c-29.078,0 -52.685,-23.959 -52.685,-53.47c0,-29.511 23.607,-53.47 52.685,-53.47Zm0,20.307c-18.035,0 -32.676,14.86 -32.676,33.163c0,18.303 14.642,33.163 32.676,33.163c18.035,0 32.676,-14.86 32.676,-33.163c0,-18.303 -14.642,-33.163 -32.676,-33.163Z" style="fill:#27a683;"/><path d="M227.549,83.028l0,-16.943l47.182,0c9.654,0 18.037,1.633 25.148,4.899c7.111,3.266 12.587,7.902 16.428,13.907c3.841,6.005 5.762,13.117 5.762,21.335c0,8.218 -1.946,15.303 -5.839,21.256c-3.893,5.953 -9.421,10.51 -16.584,13.67l24.448,35.559l-27.095,0l-21.022,-30.817l-23.202,0l0,30.817l-25.226,0l0,-13.257c11.016,-9.803 17.976,-24.19 17.976,-40.213c0,-16.023 -6.96,-30.41 -17.976,-40.213Zm68.983,23.199c0,-6.216 -1.972,-10.984 -5.917,-14.302c-3.945,-3.319 -9.706,-4.978 -17.285,-4.978l-20.555,0l0,38.561l20.555,0c7.578,0 13.34,-1.686 17.285,-5.057c3.945,-3.371 5.917,-8.113 5.917,-14.223Z" style="fill:#27a683;"/><path d="M296.843,176.712l-21.022,-30.817c0,0 17.839,-4.023 23.669,-4.741l24.448,35.559l-27.095,0Z" style="fill:#27a683;fill-rule:nonzero;"/><path d="M130.728,62.266l0,114.445l-24.886,0l0,-74.082l24.886,-40.363Z" style="fill:#27a683;"/><path d="M410.924,156.167l0,20.545l-78.425,0l0,-110.627l74.669,0l0,20.545l-49.598,0l0,24.022l28.237,0l0,19.913l-28.237,0l0,25.602l53.355,0Z" style="fill:#27a683;fill-rule:nonzero;"/><path d="M385.807,131.081l-30.657,0l0,-20.724l30.657,0l0,20.724Z" style="fill:#27a683;"/><path d="M640.339,156.862l0,-21.37l-7.971,0l0,-11.604l7.971,0l0,-12.667l14.981,0l0,12.667l12.869,0l0,11.604l-12.869,0l0,21.177c0,2.192 0.56,3.884 1.681,5.077c1.12,1.193 2.705,1.789 4.754,1.789c2.369,0 4.386,-0.645 6.05,-1.934l4.033,10.637c-1.473,1.096 -3.281,1.918 -5.426,2.466c-1.578,0.403 -3.217,0.658 -4.916,0.765c-0.61,0.038 -1.228,0.057 -1.854,0.057c-6.146,0 -10.9,-1.579 -14.261,-4.738c-3.361,-3.159 -5.042,-7.8 -5.042,-13.925Z" style="fill:#27a683;"/><path d="M659.958,176.654l0.169,0.216l-29.725,0l-26.737,-33.414l-11.796,11.719l0,21.696l-5.128,0l-0.315,-110.853l-19.093,0l0,-6.651l24.535,0l0,66.512l35.859,-34.206l29.253,0l-35.23,36.107l17.049,21.81l0,8.46c0,6.124 1.681,10.766 5.042,13.925c3.361,3.159 8.115,4.738 14.261,4.738c0.626,0 1.244,-0.019 1.854,-0.057Z" style="fill:#27a683;"/><path d="M561.529,110.832l-31.269,53.298l-11.075,0l-31.102,-51.905l0,63.299l-23.061,0l0,-36.434c5.773,-3.607 9.625,-10.08 9.625,-17.458c0,-7.379 -3.852,-13.852 -9.625,-17.458l0,-36.434l20.33,0l39.78,66.927l39.113,-66.927l20.178,0l0.303,107.785l-23.061,0l-0.136,-64.693Z" style="fill:#27a683;"/></svg>