<?xml version="1.0" encoding="UTF-8"?>
<svg id="Capa_2" data-name="Capa 2" xmlns="http://www.w3.org/2000/svg" xmlns:xlink="http://www.w3.org/1999/xlink" viewBox="0 0 299.84 71.61">
  <defs>
    <style>
      .cls-1 {
        fill: url(#Degradado_sin_nombre_41-7);
      }

      .cls-2 {
        fill: #f28221;
      }

      .cls-3 {
        fill: url(#Degradado_sin_nombre_41-5);
      }

      .cls-4 {
        fill: url(#Degradado_sin_nombre_41-13);
      }

      .cls-5 {
        fill: url(#Degradado_sin_nombre_41-8);
      }

      .cls-6 {
        letter-spacing: 0em;
      }

      .cls-7 {
        fill: url(#Degradado_sin_nombre_41-15);
      }

      .cls-8 {
        fill: url(#Degradado_sin_nombre_41-12);
      }

      .cls-9 {
        fill: url(#Degradado_sin_nombre_41-4);
      }

      .cls-10 {
        fill: #f85e11;
      }

      .cls-11 {
        fill: url(#Degradado_sin_nombre_41-10);
      }

      .cls-12 {
        fill: url(#Degradado_sin_nombre_41-14);
      }

      .cls-13 {
        letter-spacing: -.02em;
      }

      .cls-14 {
        fill: #1a5790;
        font-family: Montserrat-BoldItalic, Montserrat;
        font-size: 12px;
        font-style: italic;
        font-weight: 700;
      }

      .cls-15 {
        fill: url(#Degradado_sin_nombre_41);
      }

      .cls-16 {
        fill: url(#Degradado_sin_nombre_41-19);
      }

      .cls-17 {
        fill: url(#Degradado_sin_nombre_41-6);
      }

      .cls-18 {
        fill: url(#Degradado_sin_nombre_41-11);
      }

      .cls-19 {
        fill: url(#Degradado_sin_nombre_51-2);
      }

      .cls-20 {
        fill: url(#Degradado_sin_nombre_41-17);
      }

      .cls-21 {
        fill: url(#Degradado_sin_nombre_41-16);
      }

      .cls-22 {
        letter-spacing: 0em;
      }

      .cls-23 {
        fill: url(#Degradado_sin_nombre_41-3);
      }

      .cls-24 {
        fill: url(#Degradado_sin_nombre_41-2);
      }

      .cls-25 {
        fill: url(#Degradado_sin_nombre_41-20);
      }

      .cls-26 {
        fill: url(#Degradado_sin_nombre_41-18);
      }

      .cls-27 {
        letter-spacing: 0em;
      }

      .cls-28 {
        letter-spacing: 0em;
      }

      .cls-29 {
        fill: url(#Degradado_sin_nombre_51);
      }

      .cls-30 {
        fill: url(#Degradado_sin_nombre_42);
      }

      .cls-31 {
        letter-spacing: 0em;
      }

      .cls-32 {
        fill: url(#Degradado_sin_nombre_41-9);
      }
    </style>
    <linearGradient id="Degradado_sin_nombre_41" data-name="Degradado sin nombre 41" x1="47.51" y1="45.21" x2="47.51" y2="32.65" gradientUnits="userSpaceOnUse">
      <stop offset="0" stop-color="#102b48"/>
      <stop offset=".5" stop-color="#164877" stop-opacity=".87"/>
      <stop offset=".85" stop-color="#1a5790" stop-opacity=".8"/>
    </linearGradient>
    <linearGradient id="Degradado_sin_nombre_41-2" data-name="Degradado sin nombre 41" x1="60.11" x2="60.11" xlink:href="#Degradado_sin_nombre_41"/>
    <linearGradient id="Degradado_sin_nombre_41-3" data-name="Degradado sin nombre 41" x1="76.5" y1="45.22" x2="76.5" y2="32.67" xlink:href="#Degradado_sin_nombre_41"/>
    <linearGradient id="Degradado_sin_nombre_41-4" data-name="Degradado sin nombre 41" x1="90.08" y1="45.22" x2="90.08" y2="32.67" xlink:href="#Degradado_sin_nombre_41"/>
    <linearGradient id="Degradado_sin_nombre_41-5" data-name="Degradado sin nombre 41" x1="104.31" y1="45.22" x2="104.31" y2="32.67" xlink:href="#Degradado_sin_nombre_41"/>
    <linearGradient id="Degradado_sin_nombre_41-6" data-name="Degradado sin nombre 41" x1="117.85" x2="117.85" xlink:href="#Degradado_sin_nombre_41"/>
    <linearGradient id="Degradado_sin_nombre_41-7" data-name="Degradado sin nombre 41" x1="130.63" y1="45.22" x2="130.63" y2="32.67" xlink:href="#Degradado_sin_nombre_41"/>
    <linearGradient id="Degradado_sin_nombre_41-8" data-name="Degradado sin nombre 41" x1="147.97" y1="45.22" x2="147.97" y2="32.67" xlink:href="#Degradado_sin_nombre_41"/>
    <linearGradient id="Degradado_sin_nombre_41-9" data-name="Degradado sin nombre 41" x1="160.02" x2="160.02" xlink:href="#Degradado_sin_nombre_41"/>
    <linearGradient id="Degradado_sin_nombre_41-10" data-name="Degradado sin nombre 41" x1="171.98" y1="45.22" x2="171.98" y2="32.67" xlink:href="#Degradado_sin_nombre_41"/>
    <linearGradient id="Degradado_sin_nombre_41-11" data-name="Degradado sin nombre 41" x1="189.35" x2="189.35" xlink:href="#Degradado_sin_nombre_41"/>
    <linearGradient id="Degradado_sin_nombre_41-12" data-name="Degradado sin nombre 41" x1="207.59" y1="45.22" x2="207.59" y2="32.67" xlink:href="#Degradado_sin_nombre_41"/>
    <linearGradient id="Degradado_sin_nombre_41-13" data-name="Degradado sin nombre 41" x1="222.58" y1="45.22" x2="222.58" y2="32.67" xlink:href="#Degradado_sin_nombre_41"/>
    <linearGradient id="Degradado_sin_nombre_51" data-name="Degradado sin nombre 51" x1="243.74" y1="45.3" x2="245.19" y2="22.42" gradientUnits="userSpaceOnUse">
      <stop offset="0" stop-color="#f85e11"/>
      <stop offset=".45" stop-color="#f4731a"/>
      <stop offset=".85" stop-color="#f28221"/>
    </linearGradient>
    <linearGradient id="Degradado_sin_nombre_51-2" data-name="Degradado sin nombre 51" x1="260.38" y1="46.35" x2="261.83" y2="23.47" xlink:href="#Degradado_sin_nombre_51"/>
    <linearGradient id="Degradado_sin_nombre_41-14" data-name="Degradado sin nombre 41" x1="22.77" y1="57.07" x2="35.51" y2="6.68" xlink:href="#Degradado_sin_nombre_41"/>
    <linearGradient id="Degradado_sin_nombre_41-15" data-name="Degradado sin nombre 41" x1="27.59" y1="3.31" x2="53.7" y2="3.31" xlink:href="#Degradado_sin_nombre_41"/>
    <linearGradient id="Degradado_sin_nombre_41-16" data-name="Degradado sin nombre 41" x1="0" y1="51.22" x2="11.96" y2="51.22" xlink:href="#Degradado_sin_nombre_41"/>
    <linearGradient id="Degradado_sin_nombre_41-17" data-name="Degradado sin nombre 41" x1="10.32" y1="60.82" x2="25.2" y2="60.82" xlink:href="#Degradado_sin_nombre_41"/>
    <linearGradient id="Degradado_sin_nombre_41-18" data-name="Degradado sin nombre 41" x1="48.94" y1="6.23" x2="72.87" y2="6.23" xlink:href="#Degradado_sin_nombre_41"/>
    <linearGradient id="Degradado_sin_nombre_41-19" data-name="Degradado sin nombre 41" x1="39.66" y1="11.05" x2="87.93" y2="11.05" xlink:href="#Degradado_sin_nombre_41"/>
    <linearGradient id="Degradado_sin_nombre_41-20" data-name="Degradado sin nombre 41" x1="38.84" y1="19.15" x2="90.64" y2="19.15" xlink:href="#Degradado_sin_nombre_41"/>
    <linearGradient id="Degradado_sin_nombre_42" data-name="Degradado sin nombre 42" x1="44.34" y1="65.91" x2="239.88" y2="65.91" gradientUnits="userSpaceOnUse">
      <stop offset=".68" stop-color="#102b48"/>
      <stop offset=".87" stop-color="#164877" stop-opacity=".87"/>
      <stop offset="1" stop-color="#1a5790" stop-opacity=".8"/>
    </linearGradient>
  </defs>
  <g id="Capa_2-2" data-name="Capa 2">
    <polygon class="cls-10" points="285.3 6 292.16 6 280.04 32.42 290.55 31.41 272.57 68.76 282.37 38.89 270.61 38.28 285.3 6"/>
    <path class="cls-10" d="M246.29,63.17s9.28,4.79,20.72-3.14c1.03-.67,7.06-5.57,8.56-8.4l-4.03,11.73-1.33,3.88s-18.92,12.11-32.22-4.18l2.78-.05s3.66,4.38,10.72,4.38,14.33-3.35,17.11-5.8c0,0-6.65,4.2-12.06,4.05s-6.7-.26-10.26-2.47Z"/>
    <path class="cls-2" d="M268.82,65.03s-13.19,10.51-28.86-1.96h-1.71s8.82,12.28,24.44,7.41c0,0,7.01-2.66,7.53-3.23l1.33-3.88-2.73,1.67Z"/>
    <g>
      <path class="cls-15" d="M47.2,23.75h4.33l-3.72,21.46h-4.33l3.72-21.46Z"/>
      <path class="cls-24" d="M66.88,29.92c.94.97,1.41,2.36,1.41,4.15,0,.67-.06,1.34-.19,1.99l-1.59,9.14h-4.14l1.54-8.83c.07-.35.11-.73.11-1.13,0-.86-.2-1.51-.61-1.96-.41-.45-1.02-.67-1.83-.67-1.06,0-1.94.35-2.64,1.06-.7.71-1.17,1.76-1.42,3.17l-1.43,8.37h-4.14l2.84-16.5h3.93l-.32,1.78c1.27-1.35,2.84-2.02,4.7-2.02,1.59,0,2.86.49,3.8,1.46Z"/>
      <path class="cls-23" d="M71.97,44.98c-1.11-.32-1.97-.73-2.59-1.24l1.59-3.46c.62.47,1.38.85,2.27,1.13.89.29,1.79.43,2.7.43s1.64-.14,2.1-.41c.46-.28.69-.67.69-1.18,0-.41-.2-.71-.61-.89-.41-.18-1.06-.38-1.97-.58-1.03-.22-1.87-.47-2.54-.74s-1.24-.7-1.73-1.3c-.49-.6-.73-1.43-.73-2.47,0-1.82.66-3.24,1.98-4.26,1.32-1.02,3.05-1.53,5.19-1.53.99,0,1.96.12,2.9.37s1.74.58,2.39,1.01l-1.49,3.5c-1.17-.84-2.58-1.26-4.22-1.26-.9,0-1.59.15-2.06.46s-.7.7-.7,1.17c0,.43.2.74.61.94.41.19,1.09.4,2.04.63,1.01.23,1.84.47,2.48.72.65.26,1.21.68,1.69,1.27.48.59.72,1.4.72,2.42,0,1.84-.67,3.26-2.01,4.26-1.34,1-3.07,1.5-5.19,1.5-1.24,0-2.41-.16-3.52-.48Z"/>
      <path class="cls-9" d="M90.02,39.38c-.04.16-.05.39-.05.67,0,1.06.5,1.59,1.51,1.59.55,0,1.11-.19,1.67-.58l.61,3.4c-.92.65-2.11.98-3.56.98-1.35,0-2.43-.41-3.24-1.23-.81-.82-1.22-1.94-1.22-3.37,0-.41.04-.89.13-1.44l1.14-6.65h-2.2l.64-3.68h2.2l.69-4.02h4.14l-.69,4.02h3.56l-.64,3.68h-3.56l-1.14,6.62Z"/>
      <path class="cls-3" d="M112.83,28.71l-2.84,16.5h-3.93l.27-1.62c-1.19,1.25-2.65,1.87-4.38,1.87-1.12,0-2.14-.3-3.08-.89-.94-.59-1.69-1.45-2.24-2.56-.56-1.11-.84-2.43-.84-3.94,0-1.82.35-3.46,1.05-4.92s1.65-2.61,2.86-3.43c1.2-.83,2.53-1.24,3.98-1.24,2.2,0,3.75.83,4.65,2.48l.37-2.24h4.14ZM105.4,40.81c.64-.46,1.13-1.1,1.49-1.92.35-.82.53-1.76.53-2.82,0-1.12-.29-2.01-.86-2.67-.58-.65-1.38-.98-2.4-.98-.81,0-1.54.23-2.18.69-.64.46-1.13,1.1-1.49,1.92-.35.82-.53,1.76-.53,2.82,0,1.12.29,2.01.86,2.67.58.65,1.38.98,2.4.98.81,0,1.54-.23,2.18-.69Z"/>
      <path class="cls-17" d="M117.75,22.46h4.14l-3.93,22.75h-4.14l3.93-22.75Z"/>
      <path class="cls-1" d="M139.15,28.71l-2.84,16.5h-3.93l.27-1.62c-1.19,1.25-2.65,1.87-4.38,1.87-1.12,0-2.14-.3-3.08-.89-.94-.59-1.69-1.45-2.24-2.56-.56-1.11-.84-2.43-.84-3.94,0-1.82.35-3.46,1.05-4.92s1.65-2.61,2.86-3.43c1.2-.83,2.53-1.24,3.98-1.24,2.2,0,3.75.83,4.65,2.48l.37-2.24h4.14ZM131.72,40.81c.64-.46,1.13-1.1,1.49-1.92.35-.82.53-1.76.53-2.82,0-1.12-.29-2.01-.86-2.67-.58-.65-1.38-.98-2.4-.98-.81,0-1.54.23-2.18.69-.64.46-1.13,1.1-1.49,1.92-.35.82-.53,1.76-.53,2.82,0,1.12.29,2.01.86,2.67.58.65,1.38.98,2.4.98.81,0,1.54-.23,2.18-.69Z"/>
      <path class="cls-5" d="M143.83,44.53c-1.1-.61-1.94-1.48-2.54-2.59-.59-1.11-.89-2.41-.89-3.88,0-1.82.37-3.45,1.12-4.91.74-1.45,1.78-2.6,3.11-3.43,1.33-.84,2.82-1.26,4.49-1.26,1.52,0,2.84.36,3.94,1.09s1.93,1.75,2.48,3.08l-3.51,2.02c-.62-1.49-1.68-2.24-3.19-2.24-.81,0-1.54.23-2.19.69-.65.46-1.15,1.1-1.51,1.92-.36.82-.54,1.75-.54,2.79,0,1.12.29,2.02.88,2.68.58.66,1.4,1,2.44,1,1.52,0,2.69-.74,3.51-2.21l3.05,2.21c-.69,1.25-1.63,2.22-2.83,2.91-1.2.7-2.52,1.04-3.97,1.04s-2.75-.31-3.85-.92Z"/>
      <path class="cls-32" d="M158.67,28.71h4.12l-2.84,16.5h-4.12l2.84-16.5ZM159.7,25.69c-.45-.48-.68-1.07-.68-1.76,0-.82.25-1.5.76-2.04.5-.54,1.16-.81,1.98-.81.73,0,1.31.23,1.77.69.45.46.68,1.03.68,1.7,0,.88-.26,1.59-.77,2.13-.51.54-1.18.81-1.99.81-.71,0-1.29-.24-1.74-.72Z"/>
      <path class="cls-11" d="M167.48,44.53c-1.09-.61-1.93-1.48-2.52-2.59-.59-1.11-.89-2.41-.89-3.88,0-1.82.37-3.45,1.12-4.91.74-1.45,1.77-2.6,3.08-3.43,1.31-.84,2.79-1.26,4.44-1.26,1.45,0,2.72.31,3.8.92s1.92,1.48,2.51,2.59c.59,1.11.89,2.41.89,3.88,0,1.82-.37,3.46-1.1,4.91-.74,1.45-1.76,2.6-3.08,3.43-1.32.84-2.8,1.26-4.45,1.26-1.43,0-2.7-.31-3.78-.92ZM173.68,40.81c.64-.46,1.13-1.1,1.49-1.92.35-.82.53-1.76.53-2.82,0-1.12-.28-2.01-.85-2.67-.57-.65-1.36-.98-2.39-.98-.81,0-1.54.23-2.18.69s-1.13,1.1-1.49,1.92c-.35.82-.53,1.76-.53,2.82,0,1.12.29,2.01.86,2.67.58.65,1.38.98,2.4.98.8,0,1.51-.23,2.15-.69Z"/>
      <path class="cls-18" d="M196.12,29.92c.94.97,1.41,2.36,1.41,4.15,0,.67-.06,1.34-.19,1.99l-1.59,9.14h-4.14l1.54-8.83c.07-.35.11-.73.11-1.13,0-.86-.2-1.51-.61-1.96-.41-.45-1.02-.67-1.83-.67-1.06,0-1.94.35-2.64,1.06-.7.71-1.17,1.76-1.42,3.17l-1.43,8.37h-4.14l2.84-16.5h3.93l-.32,1.78c1.27-1.35,2.84-2.02,4.7-2.02,1.59,0,2.86.49,3.8,1.46Z"/>
      <path class="cls-8" d="M214.96,38.25h-10.94c.14,2.25,1.37,3.37,3.69,3.37.73,0,1.42-.13,2.08-.4s1.24-.64,1.74-1.13l1.73,3.16c-.8.74-1.71,1.29-2.74,1.66-1.03.37-2.11.55-3.24.55-1.47,0-2.76-.3-3.86-.9-1.11-.6-1.96-1.47-2.55-2.59-.59-1.12-.89-2.42-.89-3.89,0-1.82.36-3.46,1.08-4.92.72-1.46,1.71-2.61,2.99-3.43,1.28-.83,2.73-1.24,4.36-1.24,1.38,0,2.58.3,3.6.89,1.02.59,1.81,1.44,2.36,2.54.56,1.1.84,2.38.84,3.83,0,.76-.08,1.59-.24,2.51ZM205.74,32.96c-.67.6-1.15,1.44-1.43,2.5h7.09c0-1.06-.29-1.9-.86-2.5-.58-.6-1.35-.9-2.32-.9s-1.8.3-2.47.9Z"/>
      <path class="cls-4" d="M218.05,44.98c-1.11-.32-1.97-.73-2.59-1.24l1.59-3.46c.62.47,1.38.85,2.27,1.13.89.29,1.79.43,2.7.43s1.64-.14,2.1-.41c.46-.28.69-.67.69-1.18,0-.41-.2-.71-.61-.89s-1.06-.38-1.97-.58c-1.03-.22-1.87-.47-2.54-.74s-1.24-.7-1.73-1.3c-.49-.6-.73-1.43-.73-2.47,0-1.82.66-3.24,1.98-4.26,1.32-1.02,3.05-1.53,5.19-1.53.99,0,1.96.12,2.89.37s1.74.58,2.39,1.01l-1.49,3.5c-1.17-.84-2.58-1.26-4.22-1.26-.9,0-1.59.15-2.06.46-.47.31-.7.7-.7,1.17,0,.43.2.74.61.94s1.09.4,2.05.63c1.01.23,1.84.47,2.48.72.65.26,1.21.68,1.69,1.27.48.59.72,1.4.72,2.42,0,1.84-.67,3.26-2,4.26-1.34,1-3.07,1.5-5.19,1.5-1.24,0-2.41-.16-3.52-.48Z"/>
    </g>
    <g>
      <path class="cls-29" d="M238.29,45c-1.51-.46-2.72-1.04-3.63-1.74l1.97-3.88c.95.73,2.03,1.28,3.22,1.68,1.19.39,2.41.59,3.66.59,1.33,0,2.38-.23,3.16-.68.77-.46,1.16-1.08,1.16-1.86,0-.64-.31-1.13-.92-1.48s-1.6-.71-2.95-1.1c-1.35-.41-2.45-.81-3.31-1.2-.85-.38-1.59-.96-2.22-1.72-.63-.77-.94-1.78-.94-3.04,0-1.47.39-2.77,1.18-3.88.78-1.12,1.9-1.98,3.34-2.58,1.44-.6,3.11-.9,5.02-.9,1.41,0,2.74.16,3.99.48,1.25.32,2.32.78,3.22,1.38l-1.82,3.85c-.77-.56-1.65-.98-2.62-1.26-.97-.28-1.99-.42-3.04-.42-1.37,0-2.45.25-3.25.75-.79.5-1.19,1.14-1.19,1.93,0,.48.17.88.51,1.2.34.32.76.58,1.28.78.52.2,1.24.43,2.17.7,1.33.37,2.42.75,3.28,1.13.85.38,1.58.94,2.19,1.68.61.74.91,1.7.91,2.9,0,1.49-.4,2.79-1.19,3.9-.79,1.11-1.92,1.97-3.37,2.58-1.45.61-3.14.92-5.07.92-1.65,0-3.23-.23-4.74-.68Z"/>
      <path class="cls-19" d="M256.7,23.57h4.86l-3.4,17.65h10.46l-.8,4.1h-15.28l4.17-21.75Z"/>
    </g>
    <path class="cls-12" d="M36.53,50.94l.03-14.85h-.08v-16.51l8-7.55c.77-.72.8-1.93.08-2.7-.72-.77-1.93-.8-2.7-.08l-5.47,5.17v-7.29c.01-.18-.01-.34-.06-.5-.15-.77-.77-1.37-1.54-1.5-.13-.03-.27-.05-.41-.05-.27,0-.52.06-.76.16-.75.29-1.29,1.02-1.29,1.87l-.02,7.62-5.19-5.49c-.72-.77-1.93-.8-2.7-.08-.77.72-.8,1.93-.08,2.7l7.79,8.25v11.11l-9.56-5.33-2.75-10.8c-.26-1.02-1.3-1.64-2.32-1.38-1.02.26-1.64,1.3-1.38,2.32l1.86,7.3-6.36-3.55c-.98-.55-2.22-.2-2.77.78-.55.98-.2,2.21.77,2.76l6.65,3.71-7.32,1.87c-1.02.26-1.64,1.3-1.38,2.32.26,1.02,1.3,1.64,2.32,1.38l11.22-2.86,9.78,5.46-10.96,6.35-10.69-3.15c-1.01-.3-2.07.28-2.37,1.29-.3,1.01.28,2.07,1.29,2.37l7.22,2.13-6.3,3.65c-.97.56-1.3,1.8-.74,2.78.56.97,1.8,1.31,2.77.74l6.59-3.82-2.14,7.25c-.3,1.01.28,2.07,1.29,2.37s2.07-.28,2.37-1.29l3.28-11.11,9.61-5.58v12.66l-7.79,7.35c-.77.72-.8,1.93-.08,2.7.72.77,1.93.8,2.7.08l5.47-5.17v7.29c-.01.18.01.34.06.5.15.77.77,1.37,1.54,1.5.13.03.27.05.41.05.27,0,.52-.06.76-.16.75-.29,1.29-1.02,1.29-1.87l.02-7.62,5.19,5.49c.72.77,1.93.8,2.7.08.77-.72.8-1.93.08-2.7l-7.95-8.42Z"/>
  </g>
  <g id="Capa_1-2" data-name="Capa 1">
    <path class="cls-7" d="M27.59,1.6s11.79-4.95,25.41,2.57c0,0,1.25.52.4,1.59s-1.86,1.04-2.57.52S41.97-1.15,27.59,1.6Z"/>
    <path class="cls-21" d="M11.96,62.68S2.34,53.83,1.95,40.72c-.26-1.49-1.55-.97-1.87-.26s-.13,12.59,11.88,22.21Z"/>
    <path class="cls-20" d="M25.2,66.3s-9.24-2.41-13.54-10.57c-.63-.85-1.35-.1-1.35.45s3.78,8,14.89,10.11Z"/>
    <path class="cls-26" d="M64.62,4.4s2.12-3.13,4.67-2.02,1.73,4.47-1.59,5.15-6.93.82-6.93.82c0,0-7.26.34-11.83,3.51,0,0,5.29-2.16,9.43-1.73s10.69-.48,12.42-1.73,3.66-5.63,0-7.31-5.88,1.39-6.16,3.32Z"/>
    <path class="cls-16" d="M76.12,8.49s.43-4.18,4.57-4.57,5.29,5.05,1.83,6.78c-.58.24-3.99,2.02-10.05,1.64s-16.26-.58-20.59.72-8.66,2.79-12.22,7.31c0,0,8.37-5.94,16.59-5.63,16.61.63,24.19,1.59,29.34-2.61,2.16-1.91,3.94-5.95,0-9.13s-9.76-.1-9.48,5.48Z"/>
    <path class="cls-25" d="M90.64,13.11s-2.55,7.41-27.95,3.61c-1.64.19-16.83-2.4-23.86,8.47,4.23-1.59,6.83-8.42,25.9-5.72s22.05-1.68,25.9-6.35Z"/>
    <path class="cls-30" d="M44.34,63.07h189.84s4.23,5.54,5.69,5.69-97.76-1.31-97.76-1.31l70.06-1.53-167.82-2.85Z"/>
    <path class="cls-2" d="M281.5,7.08l-4.42,10.35s-7.66-13.91-26.42-6.47c-3.13,1.83-9.49,6.04-11.65,9.49h-37.75l36.24-2.16,1.94-1.51-19.2-.75,21.14-1.29s17.9-21.57,40.12-7.66Z"/>
    <path class="cls-10" d="M270.61,13.66s-13.16-9.38-28.8,6.79h4.85s10.68-12.51,23.94-6.79Z"/>
    <path class="cls-10" d="M279.22,12.4l-2.15,5.03s-4.55-7.22-12.46-8.35-16.17.89-25.61,11.37c0,0,6.11-15.89,27.72-14.34,3.68.26,10.01,3,12.5,6.3Z"/>
    <polyline class="cls-2" points="285.3 6 297.21 6 286.91 27.17 299.84 27.17 272.57 68.76 282.37 38.89 270.61 38.28 285.3 6"/>
    <text class="cls-14" transform="translate(49.59 58.99) scale(.86 1)"><tspan x="0" y="0">AIRE </tspan><tspan class="cls-27" x="33.4" y="0">A</tspan><tspan class="cls-13" x="42.47" y="0">C</tspan><tspan class="cls-31" x="51.08" y="0">ONDICIONADO · EL</tspan><tspan class="cls-28" x="172.26" y="0">E</tspan><tspan class="cls-22" x="180.28" y="0">C</tspan><tspan x="189" y="0">TRICI</tspan><tspan class="cls-6" x="221.9" y="0">D</tspan><tspan x="231.69" y="0">AD</tspan></text>
  </g>
</svg>